<svg width="16" height="14" viewBox="0 0 16 14" fill="none" xmlns="http://www.w3.org/2000/svg">
<path fill-rule="evenodd" clip-rule="evenodd" d="M0.499788 7.00004C0.499788 6.7514 0.598559 6.51294 0.774375 6.33712C0.950191 6.16131 1.18865 6.06254 1.43729 6.06254L12.2992 6.06254L8.27354 2.03879C8.18637 1.95162 8.11723 1.84814 8.07006 1.73425C8.02288 1.62037 7.99861 1.49831 7.99861 1.37504C7.99861 1.25177 8.02288 1.1297 8.07006 1.01582C8.11723 0.90193 8.18637 0.79845 8.27354 0.711285C8.3607 0.62412 8.46418 0.554977 8.57807 0.507804C8.69196 0.46063 8.81402 0.436352 8.93729 0.436352C9.06056 0.436352 9.18262 0.46063 9.29651 0.507804C9.41039 0.554977 9.51387 0.62412 9.60104 0.711285L15.226 6.33629C15.3133 6.42337 15.3826 6.52683 15.4299 6.64072C15.4771 6.75462 15.5015 6.87672 15.5015 7.00004C15.5015 7.12335 15.4771 7.24545 15.4299 7.35935C15.3826 7.47325 15.3133 7.5767 15.226 7.66379L9.60104 13.2888C9.425 13.4648 9.18624 13.5637 8.93729 13.5637C8.68833 13.5637 8.44958 13.4648 8.27354 13.2888C8.0975 13.1127 7.99861 12.874 7.99861 12.625C7.99861 12.3761 8.0975 12.1373 8.27354 11.9613L12.2992 7.93754L1.43729 7.93754C1.18865 7.93754 0.950191 7.83876 0.774375 7.66295C0.598559 7.48713 0.499788 7.24868 0.499788 7.00004Z" fill="white"/>
</svg>
