<svg width="36" height="36" viewBox="0 0 36 36" fill="none" xmlns="http://www.w3.org/2000/svg">
<rect width="36" height="36" rx="18" fill="white"/>
<path fill-rule="evenodd" clip-rule="evenodd" d="M12.709 5.2435C14.0775 5.1805 14.5138 5.1665 17.9998 5.1665C21.4858 5.1665 21.9222 5.18167 23.2895 5.2435C24.6568 5.30534 25.5902 5.5235 26.4068 5.83967C27.262 6.16284 28.0378 6.668 28.6795 7.32134C29.3328 7.96184 29.8368 8.7365 30.1588 9.59284C30.4762 10.4095 30.6932 11.3428 30.7562 12.7078C30.8192 14.0787 30.8332 14.515 30.8332 17.9998C30.8332 21.4858 30.818 21.9222 30.7562 23.2907C30.6943 24.6557 30.4762 25.589 30.1588 26.4057C29.8368 27.2621 29.332 28.0381 28.6795 28.6795C28.0378 29.3328 27.262 29.8368 26.4068 30.1588C25.5902 30.4762 24.6568 30.6932 23.2918 30.7562C21.9222 30.8192 21.4858 30.8332 17.9998 30.8332C14.5138 30.8332 14.0775 30.818 12.709 30.7562C11.344 30.6943 10.4107 30.4762 9.594 30.1588C8.73758 29.8368 7.96163 29.332 7.32017 28.6795C6.66728 28.0386 6.16204 27.263 5.83967 26.4068C5.5235 25.5902 5.3065 24.6568 5.2435 23.2918C5.1805 21.921 5.1665 21.4847 5.1665 17.9998C5.1665 14.5138 5.18167 14.0775 5.2435 12.7102C5.30534 11.3428 5.5235 10.4095 5.83967 9.59284C6.16251 8.7366 6.66814 7.96104 7.32134 7.32017C7.96188 6.66742 8.73705 6.16219 9.59284 5.83967C10.4095 5.5235 11.3428 5.3065 12.7078 5.2435H12.709ZM23.1857 7.5535C21.8323 7.49167 21.4263 7.47884 17.9998 7.47884C14.5733 7.47884 14.1673 7.49167 12.814 7.5535C11.5622 7.61067 10.8832 7.8195 10.4305 7.99567C9.832 8.229 9.40384 8.5055 8.95467 8.95467C8.52889 9.3689 8.20121 9.87317 7.99567 10.4305C7.8195 10.8832 7.61067 11.5622 7.5535 12.814C7.49167 14.1673 7.47884 14.5733 7.47884 17.9998C7.47884 21.4263 7.49167 21.8323 7.5535 23.1857C7.61067 24.4375 7.8195 25.1165 7.99567 25.5692C8.201 26.1257 8.52884 26.6308 8.95467 27.045C9.36884 27.4708 9.874 27.7987 10.4305 28.004C10.8832 28.1802 11.5622 28.389 12.814 28.4462C14.1673 28.508 14.5722 28.5208 17.9998 28.5208C21.4275 28.5208 21.8323 28.508 23.1857 28.4462C24.4375 28.389 25.1165 28.1802 25.5692 28.004C26.1677 27.7707 26.5958 27.4942 27.045 27.045C27.4708 26.6308 27.7987 26.1257 28.004 25.5692C28.1802 25.1165 28.389 24.4375 28.4462 23.1857C28.508 21.8323 28.5208 21.4263 28.5208 17.9998C28.5208 14.5733 28.508 14.1673 28.4462 12.814C28.389 11.5622 28.1802 10.8832 28.004 10.4305C27.7707 9.832 27.4942 9.40384 27.045 8.95467C26.6308 8.52892 26.1265 8.20125 25.5692 7.99567C25.1165 7.8195 24.4375 7.61067 23.1857 7.5535ZM16.3607 21.956C17.2761 22.3371 18.2954 22.3885 19.2446 22.1015C20.1937 21.8145 21.0138 21.2069 21.5647 20.3825C22.1156 19.558 22.3632 18.5679 22.2652 17.5811C22.1672 16.5944 21.7297 15.6723 21.0273 14.9723C20.5796 14.5249 20.0383 14.1823 19.4422 13.9692C18.8462 13.7561 18.2103 13.6778 17.5804 13.7399C16.9505 13.802 16.3422 14.003 15.7993 14.3285C15.2564 14.6539 14.7924 15.0957 14.4407 15.622C14.089 16.1483 13.8584 16.746 13.7654 17.3721C13.6725 17.9982 13.7195 18.6372 13.9031 19.2429C14.0868 19.8487 14.4024 20.4062 14.8273 20.8753C15.2523 21.3445 15.776 21.7136 16.3607 21.956ZM13.3355 13.3355C13.948 12.723 14.6752 12.2371 15.4755 11.9056C16.2758 11.5741 17.1336 11.4035 17.9998 11.4035C18.8661 11.4035 19.7238 11.5741 20.5242 11.9056C21.3245 12.2371 22.0516 12.723 22.6642 13.3355C23.2767 13.948 23.7626 14.6752 24.0941 15.4755C24.4256 16.2758 24.5962 17.1336 24.5962 17.9998C24.5962 18.8661 24.4256 19.7238 24.0941 20.5242C23.7626 21.3245 23.2767 22.0516 22.6642 22.6642C21.4271 23.9012 19.7493 24.5962 17.9998 24.5962C16.2504 24.5962 14.5726 23.9012 13.3355 22.6642C12.0984 21.4271 11.4035 19.7493 11.4035 17.9998C11.4035 16.2504 12.0984 14.5726 13.3355 13.3355ZM26.0592 12.3858C26.211 12.2427 26.3325 12.0705 26.4165 11.8795C26.5006 11.6885 26.5454 11.4826 26.5485 11.2739C26.5515 11.0653 26.5127 10.8581 26.4342 10.6648C26.3558 10.4714 26.2393 10.2958 26.0918 10.1482C25.9442 10.0007 25.7686 9.88422 25.5752 9.80577C25.3819 9.72733 25.1747 9.68848 24.9661 9.69152C24.7574 9.69456 24.5515 9.73943 24.3605 9.82348C24.1695 9.90753 23.9974 10.029 23.8542 10.1808C23.5757 10.476 23.4232 10.8681 23.4292 11.2739C23.4351 11.6797 23.5989 12.0672 23.8859 12.3542C24.1728 12.6411 24.5603 12.8049 24.9661 12.8109C25.3719 12.8168 25.764 12.6643 26.0592 12.3858Z" fill="#7F5063"/>
</svg>
