<svg width="36" height="36" viewBox="0 0 36 36" fill="none" xmlns="http://www.w3.org/2000/svg">
<rect width="36" height="36" rx="18" fill="white"/>
<g clip-path="url(#clip0_640_26)">
<path d="M29.1456 8.66688C29.0396 8.65596 28.9327 8.65596 28.8267 8.66688H7.04894C6.90936 8.66904 6.77071 8.68996 6.63672 8.72911L17.8756 19.9213L29.1456 8.66688Z" fill="#7F5063"/>
<path d="M30.2965 9.74756L18.9721 21.0253C18.6806 21.3151 18.2864 21.4777 17.8754 21.4777C17.4645 21.4777 17.0702 21.3151 16.7788 21.0253L5.55542 9.83311C5.52092 9.95992 5.50262 10.0906 5.50098 10.222V25.7776C5.50098 26.1901 5.66487 26.5858 5.95659 26.8775C6.24831 27.1692 6.64397 27.3331 7.05653 27.3331H28.8343C29.2469 27.3331 29.6425 27.1692 29.9343 26.8775C30.226 26.5858 30.3899 26.1901 30.3899 25.7776V10.222C30.3837 10.06 30.3522 9.89988 30.2965 9.74756ZM8.12209 25.7776H7.04098V24.6653L12.6954 19.0576L13.7921 20.1542L8.12209 25.7776ZM28.8188 25.7776H27.7299L22.0599 20.1542L23.1565 19.0576L28.811 24.6653L28.8188 25.7776Z" fill="#7F5063"/>
</g>
<defs>
<clipPath id="clip0_640_26">
<rect width="28" height="28" fill="white" transform="translate(4 4)"/>
</clipPath>
</defs>
</svg>
