<svg width="24" height="24" viewBox="0 0 24 24" fill="none" xmlns="http://www.w3.org/2000/svg">
<path d="M21 12H22M18.5 5.5L19.5 4.5M12 3V2M5.5 5.5L4.5 4.5M3 12H2M10 22H14M17 12C16.9997 11.0986 16.7558 10.2141 16.294 9.43993C15.8323 8.66581 15.1698 8.03092 14.3768 7.60245C13.5837 7.17397 12.6896 6.96784 11.789 7.00588C10.8884 7.04391 10.0149 7.3247 9.26079 7.81851C8.50671 8.31233 7.90014 9.00082 7.50527 9.81112C7.11041 10.6214 6.94194 11.5234 7.01769 12.4216C7.09343 13.3198 7.41058 14.1808 7.93557 14.9135C8.46056 15.6463 9.17386 16.2234 10 16.584V19H14V16.584C14.8918 16.1946 15.6507 15.5536 16.1835 14.7393C16.7164 13.9251 17.0001 12.9731 17 12V12Z" stroke="#491327" stroke-width="2" stroke-linecap="round" stroke-linejoin="round"/>
</svg>
