<svg width="32" height="32" viewBox="0 0 32 32" fill="none" xmlns="http://www.w3.org/2000/svg">
<path d="M23 16.5125C22.825 16.5125 22.6565 16.4875 22.4945 16.4375C22.3315 16.3875 22.1875 16.3 22.0625 16.175C19.9125 14.225 18.0315 12.344 16.4195 10.532C14.8065 8.719 14 7.025 14 5.45C14 4.05 14.475 2.875 15.425 1.925C16.375 0.975 17.55 0.5 18.95 0.5C19.75 0.5 20.5 0.6685 21.2 1.0055C21.9 1.3435 22.5 1.8 23 2.375C23.5 1.8 24.1 1.3435 24.8 1.0055C25.5 0.6685 26.25 0.5 27.05 0.5C28.45 0.5 29.625 0.975 30.575 1.925C31.525 2.875 32 4.05 32 5.45C32 7.025 31.194 8.719 29.582 10.532C27.969 12.344 26.0875 14.225 23.9375 16.175C23.8125 16.3 23.6685 16.3875 23.5055 16.4375C23.3435 16.4875 23.175 16.5125 23 16.5125ZM23 12.95C24.475 11.55 25.844 10.156 27.107 8.768C28.369 7.381 29 6.275 29 5.45C29 4.875 28.819 4.406 28.457 4.043C28.094 3.681 27.625 3.5 27.05 3.5C26.7 3.5 26.369 3.5685 26.057 3.7055C25.744 3.8435 25.475 4.05 25.25 4.325L23 7.025L20.75 4.325C20.525 4.05 20.2565 3.8435 19.9445 3.7055C19.6315 3.5685 19.3 3.5 18.95 3.5C18.375 3.5 17.9065 3.681 17.5445 4.043C17.1815 4.406 17 4.875 17 5.45C17 6.275 17.631 7.381 18.893 8.768C20.156 10.156 21.525 11.55 23 12.95ZM19.925 28.1L28.85 25.325C28.725 25.1 28.544 24.9065 28.307 24.7445C28.069 24.5815 27.8 24.5 27.5 24.5H19.925C19.25 24.5 18.7125 24.475 18.3125 24.425C17.9125 24.375 17.5 24.275 17.075 24.125L14.9375 23.4125C14.5375 23.2875 14.25 23.0375 14.075 22.6625C13.9 22.2875 13.875 21.9 14 21.5C14.125 21.1 14.369 20.806 14.732 20.618C15.094 20.431 15.475 20.4 15.875 20.525L17.45 21.05C17.875 21.175 18.3565 21.275 18.8945 21.35C19.4315 21.425 20.1625 21.475 21.0875 21.5H21.5C21.5 21.225 21.419 20.9625 21.257 20.7125C21.094 20.4625 20.9 20.3 20.675 20.225L11.9 17H9.5V25.25L19.925 28.1ZM19.1375 31.025L9.5 28.325C9.3 28.975 8.9065 29.5 8.3195 29.9C7.7315 30.3 7.125 30.5 6.5 30.5H3.5C2.675 30.5 1.969 30.2065 1.382 29.6195C0.794 29.0315 0.5 28.325 0.5 27.5V17C0.5 16.175 0.794 15.4685 1.382 14.8805C1.969 14.2935 2.675 14 3.5 14H11.9C12.075 14 12.25 14.0185 12.425 14.0555C12.6 14.0935 12.7625 14.1375 12.9125 14.1875L21.725 17.45C22.55 17.75 23.219 18.275 23.732 19.025C24.244 19.775 24.5 20.6 24.5 21.5H27.5C28.75 21.5 29.8125 21.9125 30.6875 22.7375C31.5625 23.5625 32 24.65 32 26C32 26.55 31.856 26.9815 31.568 27.2945C31.281 27.6065 30.8375 27.8625 30.2375 28.0625L20.8625 30.9875C20.5875 31.0875 20.3 31.1375 20 31.1375C19.7 31.1375 19.4125 31.1 19.1375 31.025ZM3.5 27.5H6.5V17H3.5V27.5Z" fill="#491327"/>
</svg>
