<svg width="36" height="36" viewBox="0 0 36 36" fill="none" xmlns="http://www.w3.org/2000/svg">
<rect width="36" height="36" rx="18" fill="white"/>
<path fill-rule="evenodd" clip-rule="evenodd" d="M15.429 14.969H19.143V16.819C19.678 15.755 21.05 14.799 23.111 14.799C27.062 14.799 28 16.917 28 20.803V28H24V21.688C24 19.475 23.465 18.227 22.103 18.227C20.214 18.227 19.429 19.572 19.429 21.687V28H15.429V14.969ZM8.57 27.83H12.57V14.799H8.57V27.83ZM13.143 10.55C13.1431 10.8853 13.0767 11.2172 12.9474 11.5266C12.8181 11.8359 12.6287 12.1165 12.39 12.352C11.9064 12.8326 11.2518 13.1017 10.57 13.1C9.88939 13.0995 9.23631 12.8312 8.752 12.353C8.51421 12.1167 8.32539 11.8358 8.19634 11.5264C8.0673 11.217 8.00058 10.8852 8 10.55C8 9.873 8.27 9.225 8.753 8.747C9.23689 8.26816 9.89024 7.9997 10.571 8C11.253 8 11.907 8.269 12.39 8.747C12.872 9.225 13.143 9.873 13.143 10.55Z" fill="#7F5063"/>
</svg>
