<svg width="32" height="31" viewBox="0 0 32 31" fill="none" xmlns="http://www.w3.org/2000/svg">
<path d="M27.8199 24.2052C28.5399 23.0502 28.9449 21.7002 28.8549 20.2152C28.6599 16.9902 26.0949 14.2602 22.8999 13.9152C21.954 13.8052 20.9955 13.8965 20.0874 14.1832C19.1794 14.47 18.3422 14.9456 17.631 15.5789C16.9199 16.2121 16.3507 16.9887 15.961 17.8576C15.5713 18.7264 15.3698 19.6679 15.3699 20.6202C15.3699 24.3552 18.3849 27.3702 22.1049 27.3702C23.4249 27.3702 24.6549 26.9802 25.6899 26.3202L29.3049 29.9352C29.8899 30.5202 30.8499 30.5202 31.4349 29.9352C32.0199 29.3502 32.0199 28.3902 31.4349 27.8052L27.8199 24.2052ZM22.1199 24.3702C21.1253 24.3702 20.1715 23.9751 19.4682 23.2719C18.7649 22.5686 18.3699 21.6148 18.3699 20.6202C18.3699 19.6256 18.7649 18.6718 19.4682 17.9686C20.1715 17.2653 21.1253 16.8702 22.1199 16.8702C23.1144 16.8702 24.0682 17.2653 24.7715 17.9686C25.4748 18.6718 25.8699 19.6256 25.8699 20.6202C25.8699 21.6148 25.4748 22.5686 24.7715 23.2719C24.0682 23.9751 23.1144 24.3702 22.1199 24.3702ZM21.5799 11.6202C20.4699 11.6502 19.4049 11.8902 18.4299 12.2952L17.6049 11.0502L12.9849 18.5652C12.8614 18.7665 12.6922 18.9358 12.491 19.0593C12.2898 19.1829 12.0622 19.2571 11.8269 19.2762C11.5915 19.2952 11.355 19.2583 11.1366 19.1687C10.9182 19.079 10.724 18.9391 10.5699 18.7602L7.38986 15.0552L2.79986 22.4052C2.33486 23.1402 1.34486 23.3352 0.639855 22.8252C0.0098554 22.3602 -0.170145 21.4902 0.249855 20.8152L5.91986 11.7402C6.45986 10.8852 7.67486 10.7952 8.33486 11.5602L11.4999 15.2502L16.2699 7.4952C16.401 7.28089 16.5841 7.10311 16.8022 6.97832C17.0203 6.85353 17.2663 6.78575 17.5175 6.78127C17.7687 6.77678 18.017 6.83573 18.2394 6.95265C18.4618 7.06958 18.6511 7.24071 18.7899 7.4502L21.5799 11.6202ZM25.4649 12.3702C24.5049 11.9502 23.4699 11.6952 22.3899 11.6352L29.1999 0.850204C29.6649 0.115204 30.6549 -0.0647964 31.3449 0.445204C31.9899 0.910204 32.1549 1.7952 31.7349 2.4552L25.4649 12.3702Z" fill="#491327"/>
</svg>
