<svg width="28" height="27" viewBox="0 0 28 27" fill="none" xmlns="http://www.w3.org/2000/svg">
<path d="M10.625 0C8.47625 0 6.73588 1.56038 6.3005 3.5865C3.677 4.0545 1.625 6.24375 1.625 9C1.625 9.27675 1.65538 9.52312 1.69588 9.774C0.97025 10.8405 0.5 12.0971 0.5 13.5C0.5 15.5216 1.50688 17.2226 2.9255 18.4568C2.82425 18.8573 2.75 19.2566 2.75 19.6875C2.75 22.4696 5.03038 24.75 7.8125 24.75H7.88337C8.53813 26.0201 9.67212 27 11.1875 27C11.7124 26.9988 12.2318 26.8924 12.7149 26.687C13.198 26.4815 13.635 26.1814 14 25.8041C14.365 26.1814 14.802 26.4815 15.2851 26.687C15.7682 26.8924 16.2876 26.9988 16.8125 27C18.329 27 19.4619 26.0201 20.1178 24.75H20.1875C22.829 24.75 24.9946 22.6935 25.2151 20.1094H25.25C25.25 20.0385 25.2196 19.9688 25.2151 19.8979C25.2196 19.8281 25.25 19.7572 25.25 19.6875C25.25 19.2701 25.1004 18.9135 25.0036 18.5276C26.4627 17.2879 27.5 15.5576 27.5 13.5C27.5 12.0983 27.0298 10.8416 26.3041 9.77287C26.3446 9.52313 26.375 9.27787 26.375 9C26.375 6.24375 24.323 4.05562 21.6995 3.58537C21.2641 1.5615 19.5238 0 17.375 0C16.025 0 14.8258 0.628875 14 1.58175C13.1742 0.63 11.975 0 10.625 0ZM10.625 2.25C11.8816 2.25 12.875 3.24338 12.875 4.5V6.75C12.875 8.6265 11.3765 10.125 9.5 10.125V12.375C10.7746 12.375 11.93 11.9362 12.875 11.2151V23.0625C12.875 24.0075 12.1325 24.75 11.1875 24.75C10.7939 24.7555 10.4112 24.6204 10.1083 24.3691C9.80538 24.1177 9.60205 23.7665 9.53487 23.3786L9.3245 22.2896L8.23438 22.4651C7.83382 22.5284 7.4243 22.5038 7.03417 22.3932C6.64405 22.2825 6.28265 22.0883 5.975 21.8241C5.66736 21.5599 5.42082 21.232 5.25247 20.8631C5.08411 20.4941 4.99797 20.093 5 19.6875C5 19.3399 5.05625 19.0147 5.1755 18.7031C5.1845 18.6772 5.2025 18.6581 5.21038 18.6322C5.38299 18.2034 5.65995 17.8245 6.01613 17.5298C6.3723 17.2351 6.79642 17.034 7.25 16.9447L6.79325 14.7308C5.64506 14.9575 4.61256 15.5793 3.875 16.488C3.14353 15.6653 2.74275 14.6008 2.75 13.5C2.74808 12.4883 3.09583 11.5071 3.73438 10.7224L4.0865 10.3005L3.98075 9.738C3.917 9.49693 3.88151 9.24927 3.875 9C3.875 7.1235 5.3735 5.625 7.25 5.625H8.375V4.5C8.375 3.24338 9.36837 2.25 10.625 2.25ZM17.375 2.25C18.6316 2.25 19.625 3.24338 19.625 4.5V5.625H20.75C22.6265 5.625 24.125 7.1235 24.125 9C24.125 9.24187 24.08 9.47475 24.0193 9.738L23.9146 10.3005L24.2656 10.7224C24.9042 11.5071 25.2519 12.4883 25.25 13.5C25.25 14.85 24.674 16.0537 23.738 16.875C22.9696 16.1944 21.9897 15.75 20.8906 15.75C19.8275 15.75 18.869 16.128 18.113 16.7693L19.5553 18.4928C19.9264 18.1729 20.4006 17.9979 20.8906 18C21.9762 18 22.8414 18.8134 22.9651 19.863C22.8729 21.3446 21.6905 22.5 20.1875 22.5C20.0863 22.5 19.9625 22.4955 19.7656 22.4651L18.6755 22.2885L18.4651 23.3797C18.3977 23.7674 18.1943 24.1183 17.8914 24.3695C17.5885 24.6206 17.2059 24.7556 16.8125 24.75C15.8675 24.75 15.125 24.0075 15.125 23.0625V11.2151C16.0909 11.9641 17.2777 12.372 18.5 12.375V10.125C16.6235 10.125 15.125 8.6265 15.125 6.75V4.5C15.125 3.24338 16.1184 2.25 17.375 2.25Z" fill="#491327"/>
</svg>
