<svg width="27" height="27" viewBox="0 0 27 27" fill="none" xmlns="http://www.w3.org/2000/svg">
<path d="M17.5 16.5L20.5675 14.2005C24.2035 11.472 25.813 5.97 25 1.5C20.5285 0.687002 15.0265 2.2965 12.2995 5.9325L10 9M17.5 16.5L12.25 20.25L6.25 14.25L10 9M17.5 16.5V20.5005C17.5 21.7987 17.0789 23.0619 16.3 24.1005L15.25 25.5L13.75 24M10 9H5.9995C4.70128 9 3.43808 9.42107 2.3995 10.2L1 11.25L2.5 12.75M7.75 22.5L2.5 24L4.249 18.75M18.25 9.75C18.6478 9.75 19.0294 9.59197 19.3107 9.31066C19.592 9.02936 19.75 8.64783 19.75 8.25C19.75 7.85218 19.592 7.47065 19.3107 7.18934C19.0294 6.90804 18.6478 6.75 18.25 6.75C17.8522 6.75 17.4706 6.90804 17.1893 7.18934C16.908 7.47065 16.75 7.85218 16.75 8.25C16.75 8.64783 16.908 9.02936 17.1893 9.31066C17.4706 9.59197 17.8522 9.75 18.25 9.75V9.75Z" stroke="#491327" stroke-width="2" stroke-linecap="round" stroke-linejoin="round"/>
</svg>
